<svg xmlns="http://www.w3.org/2000/svg" width="42" height="42" viewBox="0 0 42 42">
  <g id="calendar_4_" data-name="calendar (4)" transform="translate(-29.566 -29.566)">
    <path id="Path_246" data-name="Path 246" d="M29.566,184.556h42v29.968h-42Z" transform="translate(0 -142.958)" fill="#dfeef4"/>
    <path id="Path_247" data-name="Path 247" d="M29.566,74.258h42V82.82h-42Z" transform="translate(0 -41.222)" fill="#ff5a5a"/>
    <path id="Path_248" data-name="Path 248" d="M282.575,29.566h2.716V36.5h-2.716Z" transform="translate(-233.367)" fill="#437"/>
    <path id="Path_249" data-name="Path 249" d="M422.215,29.566h2.716V36.5h-2.716Z" transform="translate(-362.166)" fill="#437"/>
    <path id="Path_250" data-name="Path 250" d="M142.936,29.566h2.716V36.5h-2.716Z" transform="translate(-104.568)" fill="#437"/>
    <g id="Group_148" data-name="Group 148" transform="translate(35.052 45.749)">
      <circle id="Ellipse_14" data-name="Ellipse 14" cx="2.287" cy="2.287" r="2.287" fill="#0be"/>
      <circle id="Ellipse_15" data-name="Ellipse 15" cx="2.287" cy="2.287" r="2.287" transform="translate(8.818)" fill="#0be"/>
      <circle id="Ellipse_16" data-name="Ellipse 16" cx="2.287" cy="2.287" r="2.287" transform="translate(17.636)" fill="#0be"/>
      <circle id="Ellipse_17" data-name="Ellipse 17" cx="2.287" cy="2.287" r="2.287" transform="translate(26.454)" fill="#0be"/>
      <circle id="Ellipse_18" data-name="Ellipse 18" cx="2.287" cy="2.287" r="2.287" transform="translate(0 8.547)" fill="#0be"/>
      <circle id="Ellipse_19" data-name="Ellipse 19" cx="2.287" cy="2.287" r="2.287" transform="translate(8.818 8.547)" fill="#0be"/>
      <circle id="Ellipse_20" data-name="Ellipse 20" cx="2.287" cy="2.287" r="2.287" transform="translate(17.636 8.547)" fill="#0be"/>
      <circle id="Ellipse_21" data-name="Ellipse 21" cx="2.287" cy="2.287" r="2.287" transform="translate(26.454 8.547)" fill="#0be"/>
      <circle id="Ellipse_22" data-name="Ellipse 22" cx="2.287" cy="2.287" r="2.287" transform="translate(0 17.093)" fill="#0be"/>
      <circle id="Ellipse_23" data-name="Ellipse 23" cx="2.287" cy="2.287" r="2.287" transform="translate(8.818 17.093)" fill="#0be"/>
      <circle id="Ellipse_24" data-name="Ellipse 24" cx="2.287" cy="2.287" r="2.287" transform="translate(17.636 17.093)" fill="#0be"/>
      <circle id="Ellipse_25" data-name="Ellipse 25" cx="2.287" cy="2.287" r="2.287" transform="translate(26.454 17.093)" fill="#0be"/>
    </g>
  </g>
</svg>
