<svg xmlns="http://www.w3.org/2000/svg" width="392.686" height="525.544" viewBox="0 0 392.686 525.544">
  <g id="Слой_2" data-name="Слой 2" transform="translate(-0.003)">
    <g id="Layer_1" data-name="Layer 1" transform="translate(0.003)">
      <path id="Path_510" data-name="Path 510" d="M408.223,370.922l-.431-1.121c-14.743-35.306,1.035,1.423,13.493,10.6a13.967,13.967,0,0,0,19.184-1.9,23.926,23.926,0,0,0,5.863-17.028c.345-42.721,2.8,1.983,4.958,14.873.474,2.8.733,5.561,1.078,8.363s.647,5.173,1.121,7.76,0,3.535-2.2,4.613c-8.018,4.311-15.864,8.622-23.667,13.407a175.955,175.955,0,0,0-16.338,10.562c-3.19,2.371-3.621,2.328-6.639-.345-4.311-3.966-8.622-8.622-12.933-12.674A125.406,125.406,0,0,0,379.9,397.391c-30.176-22.288.56-2.587,3.276-1.423s6.294,2.457,9.484,3.535a19.183,19.183,0,0,0,9.1.6,10.088,10.088,0,0,0,8.622-7.673,20.175,20.175,0,0,0,.819-8.018A44.792,44.792,0,0,0,408.223,370.922Z" transform="translate(-133.705 -125.2)" fill="#f1d023" fill-rule="evenodd"/>
      <path id="Path_511" data-name="Path 511" d="M24.272,362.98c16.425,23.451,34.487,44.489,61.043,57.853A135.1,135.1,0,0,0,121.4,433.2a122.177,122.177,0,0,0,13.45,1.293,123.779,123.779,0,0,0,14.786-1.078,140.625,140.625,0,0,0,28.107-8.363s41.342-15.131,60.008-30.909a118.637,118.637,0,0,1,34.186-19.356,129.332,129.332,0,0,1,26.555-4.914c18.321-2.975,17.244-3.751,29.918-9.441s37.031-29.7,43.109-39.531,23.71-38.8,20.865-46.989a148.691,148.691,0,0,0-18.365-1.466H371.43a157.6,157.6,0,0,0-17.244.647,93.677,93.677,0,0,0-43.109,14.011,83.155,83.155,0,0,0-12.933,11.51c3.837.905,20.692-4.613,25.866-5.82,14.183-3.276,28.926-5.13,41.083-.905a59.618,59.618,0,0,0-5.259,10.777,106.823,106.823,0,0,1-6.423,11.252c-7.932,12.372-23.839,27.805-39.66,31.772-44.058,10.993-43.109,1.38-87.727,28.107-17.89,10.734-21.555,13.148-31.34,18.365-28.237,15.3-52.421,23.667-84.667,12.933a67.166,67.166,0,0,1-14.528-7.07L81.219,387.983l-16.3-13.795c-19.485-19.83-23.322-28.8-33.022-54.619-9.915-37.591-4.785-63.457,5.69-99.712,15.562-53.887,39.445-95.7,26.857-156.918A249.733,249.733,0,0,0,53.284,26.9L39.963,0A191.1,191.1,0,0,1,58.8,75.139c2.026,87.555-76.3,157.047-55.18,243.308A157.435,157.435,0,0,0,24.272,362.98Z" transform="translate(-0.003)" fill="#fff" fill-rule="evenodd"/>
      <path id="Path_512" data-name="Path 512" d="M65.063,738.062l3.535-.3c2.026,0,3.923-.862,5.949-1.078l10.993-2.716c2.5-.776,4.914-1.6,7.242-2.414,3.406,8.277,3.406,28.538,6.984,38.152a51.73,51.73,0,0,0,8.32-12.545,168.123,168.123,0,0,0,5.475-25.521c2.026,2.457,12.459,6.984,14.7,8.622,2.155-1.078.69-2.888.431-3.319-3.492-6.294-7.027-12.933-11.165-19.96S109.853,704.609,106.059,699a23.581,23.581,0,0,1,10.734-14.054,74.151,74.151,0,0,1,15.994-4.311l4.656-.948a37.06,37.06,0,0,1-5-1.121c-6.251-1.854-13.235-4.785-19.27-7.285a14.786,14.786,0,0,0-5.82-1.6,11.465,11.465,0,0,0-4.57,1.078,14.959,14.959,0,0,0-5.087,3.276,26.728,26.728,0,0,0-9.829,17.933,124.755,124.755,0,0,0,1.207,16.9c0,2.63-1.552,3.837-5.13,7.242C79.763,720.6,68.425,735.216,65.063,738.062Z" transform="translate(-23.723 -244.159)" fill="#fff" fill-rule="evenodd"/>
      <path id="Path_513" data-name="Path 513" d="M374.119,632.6c5.3,9.743,22.848,9.139,25.866,9.139a88.252,88.252,0,0,1,15.864,0,34.877,34.877,0,0,1,10.3,3.578,22.244,22.244,0,0,1,9.268,8.837,55.611,55.611,0,0,1,7.2,21.555l3.233-8.622a40.74,40.74,0,0,1,3.535-9.139,65.871,65.871,0,0,0,11.381,6.165,17.243,17.243,0,0,0,5.906,1.638,14.873,14.873,0,0,0,6.6,0L460.338,650.15l-5.518-5.216a62.425,62.425,0,0,0-5.389-4.871c3.363-2.069,16.382-1.293,21.555-5-3.1-4.052-15.261-9.441-25.866-9.613-6.984,0-38.195,9.139-45.135-4.311-4.311-8.622,1.811-17.244,1.6-21.124-6.337,3.061-23.408,11.295-26.469,16.209A17.244,17.244,0,0,0,374.119,632.6Z" transform="translate(-135.814 -218.756)" fill="#fff" fill-rule="evenodd"/>
    </g>
  </g>
</svg>
