<svg id="photograph" xmlns="http://www.w3.org/2000/svg" width="173.982" height="142.085" viewBox="0 0 173.982 142.085">
  <path id="Path_425" data-name="Path 425" d="M160.067,129.681H135.349l-11.6-29H50.232l-11.6,29H34.8v-14.5H17.4v14.5H13.916A13.928,13.928,0,0,0,0,143.6v85.159a14.03,14.03,0,0,0,14.014,14.014H159.968a14.03,14.03,0,0,0,14.014-14.014V143.6A13.928,13.928,0,0,0,160.067,129.681ZM23.2,120.982H29v8.7H23.2ZM168.183,228.755a8.223,8.223,0,0,1-8.215,8.215H14.014A8.225,8.225,0,0,1,5.8,228.755V143.6a8.127,8.127,0,0,1,8.116-8.116H42.559l11.6-29h65.667l11.6,29h28.643a8.127,8.127,0,0,1,8.116,8.116v85.159Z" transform="translate(0 -100.684)" fill="#bbb"/>
  <path id="Path_426" data-name="Path 426" d="M271.868,265.439a52.195,52.195,0,1,0,52.195,52.195A52.255,52.255,0,0,0,271.868,265.439Zm0,98.59a46.4,46.4,0,1,1,46.4-46.4A46.449,46.449,0,0,1,271.868,364.029Z" transform="translate(-184.877 -239.341)" fill="#bbb"/>
  <path id="Path_427" data-name="Path 427" d="M364.307,375.276a34.8,34.8,0,1,0,34.8,34.8A34.835,34.835,0,0,0,364.307,375.276Zm0,63.794a29,29,0,1,1,29-29A29.03,29.03,0,0,1,364.307,439.069Z" transform="translate(-277.316 -331.78)" fill="#bbb"/>
  <path id="Path_428" data-name="Path 428" d="M890.293,356.969a11.6,11.6,0,1,0,11.6,11.6A11.611,11.611,0,0,0,890.293,356.969Zm0,17.4a5.8,5.8,0,1,1,5.8-5.8A5.805,5.805,0,0,1,890.293,374.368Z" transform="translate(-739.508 -316.374)" fill="#bbb"/>
</svg>
