<svg xmlns="http://www.w3.org/2000/svg" width="312.124" height="365.876" viewBox="0 0 312.124 365.876">
  <g id="Recomendation" transform="translate(-93.938 -62.737)">
    <path id="Path_376" data-name="Path 376" d="M406.062,419.345c0,5.118-69.872,9.268-156.062,9.268s-156.062-4.15-156.062-9.268S163.81,410.078,250,410.078,406.062,414.228,406.062,419.345Z" fill="#ddd" style="mix-blend-mode: multiply;isolation: isolate"/>
    <g id="Group_237" data-name="Group 237">
      <path id="Path_377" data-name="Path 377" d="M245.552,62.737,286.7,124.643l75.992,13.345L320.8,74.6Z" fill="#2c3a45"/>
      <path id="Path_378" data-name="Path 378" d="M245.552,62.737l-1.113,1.112L361.579,139.1l1.112-1.112Z" fill="#2c3a45"/>
      <path id="Path_379" data-name="Path 379" d="M244.439,63.849l41.148,61.906L361.579,139.1,319.69,75.711Z" fill="#1d262d"/>
      <path id="Path_380" data-name="Path 380" d="M330.812,120.191l-8.241,13.479-11.032,18.038-56.717-37.077c.457-1.057,7.986-11.633,14-20.018,4.105-5.694,7.5-10.375,7.5-10.375C301.519,84.571,319.725,96.481,330.812,120.191Z" fill="#2c3a45"/>
      <path id="Path_381" data-name="Path 381" d="M288.316,85.375a71.605,71.605,0,0,0-12-1.137s-3.392,4.681-7.5,10.375c-6.015,8.385-13.544,18.961-14,20.018l9.344,6.108C271.858,108.86,279.663,96.58,288.316,85.375Z" fill="#415666"/>
      <path id="Path_382" data-name="Path 382" d="M330.812,120.191l-8.241,13.479c-.033-.1-.067-.212-.1-.312C311.35,96.281,268.9,95.169,268.9,95.169l-.079-.556c4.105-5.694,7.5-10.375,7.5-10.375C301.519,84.571,319.725,96.481,330.812,120.191Z" fill="#788b9c" opacity="0.49" style="mix-blend-mode: multiply;isolation: isolate"/>
    </g>
    <g id="Group_239" data-name="Group 239">
      <g id="Group_238" data-name="Group 238">
        <path id="Rectangle_108" data-name="Rectangle 108" d="M11.524,0H28.789A11.525,11.525,0,0,1,40.315,11.525v15.98A11.525,11.525,0,0,1,28.789,39.031H11.524A11.524,11.524,0,0,1,0,27.507V11.524A11.524,11.524,0,0,1,11.524,0Z" transform="translate(219.463 297.093)" fill="#788b9c"/>
        <path id="Rectangle_109" data-name="Rectangle 109" d="M8.9,0H47.663a8.9,8.9,0,0,1,8.9,8.9V45.861a8.9,8.9,0,0,1-8.9,8.9H8.9a8.9,8.9,0,0,1-8.9-8.9V8.9A8.9,8.9,0,0,1,8.9,0Z" transform="translate(211.34 274.522)" fill="#a5b7c6"/>
        <path id="Path_383" data-name="Path 383" d="M320.077,186.379A80.458,80.458,0,1,0,206,259.471v21.295a9.608,9.608,0,0,0,9.606,9.607h48.036a9.607,9.607,0,0,0,9.6-9.607V259.471A80.452,80.452,0,0,0,320.077,186.379Z" fill="#fac408"/>
      </g>
      <path id="Path_384" data-name="Path 384" d="M268.257,262.727V280.8s-.834,5-8.063,5H242.4S262.7,280.8,268.257,262.727Z" fill="#ffe736" opacity="0.54"/>
      <path id="Path_385" data-name="Path 385" d="M271.119,120.494a71.727,71.727,0,0,0-95.289,34.784c29.5-25.066,61.459-35.519,95.289-34.784" fill="#ffe736" opacity="0.54"/>
    </g>
    <g id="Group_240" data-name="Group 240">
      <rect id="Rectangle_110" data-name="Rectangle 110" width="50.137" height="0.918" transform="translate(213.672 293.869)" fill="#788b9c"/>
      <rect id="Rectangle_111" data-name="Rectangle 111" width="50.137" height="0.919" transform="translate(213.672 297.206)" fill="#788b9c"/>
      <rect id="Rectangle_112" data-name="Rectangle 112" width="50.137" height="0.919" transform="translate(213.672 300.541)" fill="#788b9c"/>
      <rect id="Rectangle_113" data-name="Rectangle 113" width="50.137" height="0.919" transform="translate(213.672 303.878)" fill="#788b9c"/>
      <rect id="Rectangle_114" data-name="Rectangle 114" width="50.137" height="0.919" transform="translate(213.672 307.214)" fill="#788b9c"/>
      <rect id="Rectangle_115" data-name="Rectangle 115" width="50.137" height="0.919" transform="translate(213.672 310.551)" fill="#788b9c"/>
      <rect id="Rectangle_116" data-name="Rectangle 116" width="50.137" height="0.919" transform="translate(213.672 313.887)" fill="#788b9c"/>
      <rect id="Rectangle_117" data-name="Rectangle 117" width="50.137" height="0.919" transform="translate(213.672 317.223)" fill="#788b9c"/>
      <rect id="Rectangle_118" data-name="Rectangle 118" width="50.137" height="0.919" transform="translate(213.672 320.56)" fill="#788b9c"/>
      <rect id="Rectangle_119" data-name="Rectangle 119" width="50.137" height="0.919" transform="translate(213.672 323.895)" fill="#788b9c"/>
    </g>
    <path id="Path_386" data-name="Path 386" d="M263.809,294.609v24.116c0,.091-.332,6.278-7.507,6.278H246.2a.185.185,0,0,1-.187-.186v-29.94a.187.187,0,0,1,.183-.186l17.422-.267A.186.186,0,0,1,263.809,294.609Z" fill="#788b9c" opacity="0.51" style="mix-blend-mode: multiply;isolation: isolate"/>
    <g id="Group_243" data-name="Group 243">
      <g id="Group_241" data-name="Group 241">
        <path id="Rectangle_120" data-name="Rectangle 120" d="M1.943,0H100.9a1.943,1.943,0,0,1,1.943,1.943V22.4a1.941,1.941,0,0,1-1.941,1.941H1.942A1.942,1.942,0,0,1,0,22.4V1.943A1.943,1.943,0,0,1,1.943,0Z" transform="translate(211.839 335.197)" fill="#e3d9d3"/>
        <path id="Path_387" data-name="Path 387" d="M314.966,339.084h-98.96a1.945,1.945,0,0,1-1.943-1.945h0a1.944,1.944,0,0,1,1.943-1.942h98.96a1.942,1.942,0,0,1,1.942,1.942h0A1.943,1.943,0,0,1,314.966,339.084Z" fill="#e86c27"/>
        <path id="Path_388" data-name="Path 388" d="M314.966,355.764h-98.96a1.944,1.944,0,0,1-1.943-1.944h0a1.943,1.943,0,0,1,1.943-1.941h98.96a1.942,1.942,0,0,1,1.942,1.941h0A1.942,1.942,0,0,1,314.966,355.764Z" fill="#e86c27"/>
        <path id="Rectangle_121" data-name="Rectangle 121" d="M1.943,0H140.127a1.942,1.942,0,0,1,1.942,1.942V22.4a1.942,1.942,0,0,1-1.942,1.942H1.942A1.942,1.942,0,0,1,0,22.4V1.943A1.943,1.943,0,0,1,1.943,0Z" transform="translate(191.956 395.19)" fill="#d4d3cf"/>
        <path id="Rectangle_122" data-name="Rectangle 122" d="M.553,0H143.43a.553.553,0,0,1,.553.553V2.1a.553.553,0,0,1-.553.553H.552A.552.552,0,0,1,0,2.1V.553A.553.553,0,0,1,.553,0Z" transform="translate(191.956 395.19)" fill="#43759c"/>
        <path id="Rectangle_123" data-name="Rectangle 123" d="M.553,0H143.43a.553.553,0,0,1,.553.553V2.1a.554.554,0,0,1-.554.554H.552A.552.552,0,0,1,0,2.1V.553A.553.553,0,0,1,.553,0Z" transform="translate(191.956 416.69)" fill="#43759c"/>
        <path id="Rectangle_124" data-name="Rectangle 124" d="M1.943,0H121.128a1.943,1.943,0,0,1,1.943,1.943v10.17a1.942,1.942,0,0,1-1.942,1.942H1.942A1.942,1.942,0,0,1,0,12.113V1.943A1.943,1.943,0,0,1,1.943,0Z" transform="translate(201.555 359.538)" fill="#e3d9d3"/>
        <rect id="Rectangle_125" data-name="Rectangle 125" width="123.072" height="2.164" rx="0.679" transform="translate(202.666 359.538)" fill="#e84e27"/>
        <path id="Rectangle_126" data-name="Rectangle 126" d="M.68,0H122.393a.679.679,0,0,1,.679.679v.808a.679.679,0,0,1-.679.679H.679A.679.679,0,0,1,0,1.487V.68A.68.68,0,0,1,.68,0Z" transform="translate(202.666 371.399)" fill="#e84e27"/>
        <path id="Rectangle_127" data-name="Rectangle 127" d="M.491,0H118.353a.491.491,0,0,1,.491.491v2.9a.492.492,0,0,1-.492.492H.492A.492.492,0,0,1,0,3.394V.491A.491.491,0,0,1,.491,0Z" transform="translate(204.183 355.652)" fill="#d4d3cf"/>
        <path id="Rectangle_128" data-name="Rectangle 128" d="M1.943,0H120.214a1.943,1.943,0,0,1,1.943,1.943V17.274a1.942,1.942,0,0,1-1.942,1.942H1.942A1.942,1.942,0,0,1,0,17.274V1.943A1.943,1.943,0,0,1,1.943,0Z" transform="translate(204.64 375.974)" fill="#e3d9d3"/>
        <path id="Path_389" data-name="Path 389" d="M326.455,395.19H206.582a1.942,1.942,0,0,1-1.942-1.943h0a1.943,1.943,0,0,1,1.942-1.942H326.455a1.943,1.943,0,0,1,1.942,1.942h0A1.942,1.942,0,0,1,326.455,395.19Z" fill="#43999c"/>
        <path id="Path_390" data-name="Path 390" d="M326.455,377.479H206.582a1.944,1.944,0,0,1-1.942-1.943h0a1.941,1.941,0,0,1,1.942-1.942H326.455a1.941,1.941,0,0,1,1.942,1.942h0A1.944,1.944,0,0,1,326.455,377.479Z" fill="#43999c"/>
      </g>
      <g id="Group_242" data-name="Group 242">
        <path id="Rectangle_129" data-name="Rectangle 129" d="M1.943,0H100.9a1.944,1.944,0,0,1,1.944,1.944V22.4a1.941,1.941,0,0,1-1.941,1.941H1.942A1.942,1.942,0,0,1,0,22.4V1.943A1.943,1.943,0,0,1,1.943,0Z" transform="translate(163.185 335.197)" fill="#e86c27"/>
        <path id="Rectangle_130" data-name="Rectangle 130" d="M1.943,0h140.1a1.942,1.942,0,0,1,1.942,1.942V22.4a1.942,1.942,0,0,1-1.942,1.942H1.942A1.942,1.942,0,0,1,0,22.4V1.943A1.943,1.943,0,0,1,1.943,0Z" transform="translate(143.303 395.19)" fill="#43759c"/>
        <path id="Rectangle_131" data-name="Rectangle 131" d="M1.943,0H121.129a1.943,1.943,0,0,1,1.943,1.943v10.17a1.942,1.942,0,0,1-1.942,1.942H1.942A1.942,1.942,0,0,1,0,12.113V1.943A1.943,1.943,0,0,1,1.943,0Z" transform="translate(152.9 359.538)" fill="#e84e27"/>
        <path id="Rectangle_132" data-name="Rectangle 132" d="M1,0H117.843a1,1,0,0,1,1,1V2.884a1,1,0,0,1-1,1H1a1,1,0,0,1-1-1V1A1,1,0,0,1,1,0Z" transform="translate(155.529 355.652)" fill="#43999c"/>
        <path id="Rectangle_133" data-name="Rectangle 133" d="M1.943,0H121.815a1.943,1.943,0,0,1,1.943,1.943V19.654a1.942,1.942,0,0,1-1.942,1.942H1.943A1.943,1.943,0,0,1,0,19.653V1.943A1.943,1.943,0,0,1,1.943,0Z" transform="translate(155.986 373.594)" fill="#43999c"/>
        <rect id="Rectangle_134" data-name="Rectangle 134" width="5.699" height="13.762" transform="translate(160.679 359.616)" fill="#e86c27"/>
        <rect id="Rectangle_135" data-name="Rectangle 135" width="12.233" height="21.687" transform="translate(165.544 373.378)" fill="#fff"/>
        <rect id="Rectangle_136" data-name="Rectangle 136" width="0.919" height="14.458" transform="translate(184.175 377.272)" fill="#fff"/>
        <rect id="Rectangle_137" data-name="Rectangle 137" width="104.351" height="2.757" transform="translate(155.35 407.587)" fill="#fff"/>
        <rect id="Rectangle_138" data-name="Rectangle 138" width="0.919" height="5.561" transform="translate(171.201 363.185)" fill="#fff"/>
        <rect id="Rectangle_139" data-name="Rectangle 139" width="2.756" height="3.893" transform="translate(166.019 355.586)" fill="#efd32e"/>
        <rect id="Rectangle_140" data-name="Rectangle 140" width="2.757" height="19.832" transform="translate(172.506 335.383)" fill="#efd32e"/>
      </g>
      <rect id="Rectangle_141" data-name="Rectangle 141" width="66.17" height="2.756" transform="translate(183.893 344.569)" fill="#fff"/>
    </g>
    <g id="Group_247" data-name="Group 247">
      <g id="Group_244" data-name="Group 244">
        <path id="Path_391" data-name="Path 391" d="M353.727,372.239l-6.864,1.669-6.49,8.347,9.733,2.5s6.841,1.56,6.956-1.763A26.907,26.907,0,0,0,353.727,372.239Z" fill="#202a42"/>
      </g>
      <path id="Path_392" data-name="Path 392" d="M350.323,365.336a25.464,25.464,0,0,1-4.862,2.69,14.682,14.682,0,0,1-5.517,1.259,10.007,10.007,0,0,1-1.482-.122,11.14,11.14,0,0,1-1.4-.371c-.836-.278-1.664-.591-2.48-.926a26.52,26.52,0,0,1-4.72-2.454.554.554,0,0,1,.56-.954l.042.02a25.671,25.671,0,0,0,4.687,1.737c.811.221,1.627.418,2.451.584a8.492,8.492,0,0,0,1.124.156,7.851,7.851,0,0,0,1.092-.049,12.152,12.152,0,0,0,4.327-1.6A22.388,22.388,0,0,0,348,362.518l.035-.034a1.832,1.832,0,1,1,2.469,2.706A2.125,2.125,0,0,1,350.323,365.336Z" fill="#3c8a8c"/>
      <g id="Group_245" data-name="Group 245">
        <path id="Path_393" data-name="Path 393" d="M354.894,366.8a25.325,25.325,0,0,1-.13-4.488,1.273,1.273,0,0,1-.5-.032,1.322,1.322,0,0,1-.782-1.923v.006c.007-.015.014-.03.02-.045l-1.633.115s-5.05,3.427-5.5,5.961a25.042,25.042,0,0,0,.348,6.693,20.726,20.726,0,0,1,4.413-.388c.008,0,.013,0,.021,0a2.452,2.452,0,0,1,.295-.932,2.5,2.5,0,0,1,1.446-1.3,1.106,1.106,0,0,1,.924.258,1.152,1.152,0,0,1,.781-.1l.661-3.2A.878.878,0,0,1,354.894,366.8Z" fill="#43999c"/>
      </g>
      <g id="Group_246" data-name="Group 246">
        <rect id="Rectangle_142" data-name="Rectangle 142" width="2.909" height="11.128" transform="translate(351.264 352.024)" fill="#ffce88"/>
      </g>
      <path id="Path_394" data-name="Path 394" d="M348.229,351.306c-.745,2.849-.115,5.483,2.737,6.228a5.334,5.334,0,1,0,2.7-10.322C350.812,346.466,348.974,348.455,348.229,351.306Z" fill="#ffce88"/>
      <path id="Path_395" data-name="Path 395" d="M350.946,357.089s4.168-5.966,3.879-6.042l-6.834-1.785s2.67-5.452,9.561-1.615c4.3,2.4,4.961,8.921,2.613,11.162C358.756,360.155,350.946,357.089,350.946,357.089Z" fill="#202a42"/>
      <path id="Path_396" data-name="Path 396" d="M346.454,383.317l-17.079-4.445,1.856-1.694,1.015,16.9a.514.514,0,0,1-1.018.124l-3.06-16.65a1.476,1.476,0,0,1,1.184-1.719,1.534,1.534,0,0,1,.51-.005l.162.029,17.4,2.97a2.3,2.3,0,1,1-.774,4.533C346.583,383.348,346.516,383.333,346.454,383.317Z" fill="#202a42"/>
      <path id="Path_397" data-name="Path 397" d="M354.227,381.022l.011,2.507c0,.855.028,1.623.044,2.428l.1,4.8.224,10.056-.161-.648,6.987,17.74a.553.553,0,0,1-1,.469l-9.139-16.734a1.243,1.243,0,0,1-.15-.5l-.011-.147-.784-10.05-.372-5.253-.32-5.124a2.286,2.286,0,1,1,4.564-.284c0,.041.005.083.005.124Z" fill="#202a42"/>
      <path id="Path_398" data-name="Path 398" d="M356.591,361.408c1.375,2.177,2.643,4.339,3.813,6.644a25.382,25.382,0,0,1,1.561,3.675,7.8,7.8,0,0,1,.265,1.112,3.192,3.192,0,0,1-.092,1.62,1.988,1.988,0,0,1-.9,1.066,3.593,3.593,0,0,1-.8.253,7.78,7.78,0,0,1-1.171.09,50.143,50.143,0,0,1-7.605-1.059c-2.463-.491-4.9-1.035-7.333-1.625a.557.557,0,0,1-.409-.672.564.564,0,0,1,.627-.42c2.452.358,4.922.673,7.383.928a49,49,0,0,0,7.251.342,5.133,5.133,0,0,0,.68-.113c.022-.019.153-.054.087-.023a.812.812,0,0,0-.341.354c-.049.16-.021-.029-.092-.225a5.562,5.562,0,0,0-.24-.682,23.126,23.126,0,0,0-1.661-3.055c-1.281-2.03-2.73-4.045-4.2-5.954l-.016-.02a1.953,1.953,0,1,1,3.093-2.386C356.521,361.306,356.559,361.358,356.591,361.408Z" fill="#43999c"/>
      <path id="Path_399" data-name="Path 399" d="M352.8,360.313c1.9,0,3.892,1.04,3.892,4.239s-2.963,7.687-2.963,7.687h-5.585l1.6-9.494Z" fill="#43999c"/>
      <path id="Path_400" data-name="Path 400" d="M354.779,360.486l-.626-1.321-2.4,1.008s-1.078,2.329-.974,2.294S354.779,360.486,354.779,360.486Z" fill="#3c8a8c"/>
      <path id="Path_401" data-name="Path 401" d="M351.2,360.069l-.729.1-1.5,2.154.7-.208,1.565-1.251Z" fill="#3c8a8c"/>
      <path id="Path_402" data-name="Path 402" d="M353.727,372.239l-6.864,1.669-.391-2.822,7.958-.175Z" fill="#43999c"/>
      <path id="Path_403" data-name="Path 403" d="M332.943,394.973c0-.278-.277-4.264-.277-4.264l-3.707-.093,1.574,3.337s-1.3.277-1.389,1.02S332.943,394.973,332.943,394.973Z" fill="#43999c"/>
      <path id="Path_404" data-name="Path 404" d="M361.949,417.306s-.647-2.78-.926-2.688-3.708,1.3-3.708,1.3l3.059,3.522s-1.575.371-1.667,1.019,3.613,0,3.613,0Z" fill="#43999c"/>
      <path id="Path_405" data-name="Path 405" d="M344.875,372.128l-.139,1.25-2.85.279s-.417-2.711.835-2.432A6.748,6.748,0,0,1,344.875,372.128Z" fill="#ffce88"/>
      <path id="Path_406" data-name="Path 406" d="M329.863,365.412c-.488.044-2.712-1.485-2.712-1.485s.7-2.641,2.016-1.878a2.946,2.946,0,0,1,1.3,2.429Z" fill="#ffce88"/>
      <path id="Path_407" data-name="Path 407" d="M348.229,351.306c-.3.248-1.895,1.152-1.895,1.152l2.155,1.39.695-2.433Z" fill="#ffce88"/>
    </g>
    <g id="Group_250" data-name="Group 250">
      <path id="Path_408" data-name="Path 408" d="M194.573,304.8a18.487,18.487,0,0,0,3.677,2.691,8.933,8.933,0,0,0,4.172,1.259,5.869,5.869,0,0,0,1.121-.121,6.663,6.663,0,0,0,1.058-.373c.633-.277,1.258-.588,1.875-.925a18.939,18.939,0,0,0,3.569-2.452.673.673,0,0,0,.115-.771.366.366,0,0,0-.539-.186l-.03.022a16.809,16.809,0,0,1-3.545,1.736c-.614.221-1.231.419-1.854.584a4.929,4.929,0,0,1-.851.156,4.392,4.392,0,0,1-.823-.049,7.907,7.907,0,0,1-3.273-1.6,17.972,17.972,0,0,1-2.913-2.794l-.028-.033a1.165,1.165,0,0,0-1.958.119,2.269,2.269,0,0,0,.091,2.588A1.866,1.866,0,0,0,194.573,304.8Z" fill="#cf6023"/>
      <g id="Group_248" data-name="Group 248">
        <path id="Path_409" data-name="Path 409" d="M191.3,307.027a25.5,25.5,0,0,0,.131-4.487,1.273,1.273,0,0,0,.5-.031,1.322,1.322,0,0,0,.782-1.923v.005l-.02-.044,1.633.115s2.825,1.2,3.277,3.737c.339,1.9,2.119,7.4,1.875,8.916a20.77,20.77,0,0,0-4.411-.387c-.008,0-.014,0-.022,0a2.461,2.461,0,0,0-.295-.931A2.487,2.487,0,0,0,193.3,310.7a1.112,1.112,0,0,0-.924.256,1.144,1.144,0,0,0-.78-.1l-.662-3.2A.876.876,0,0,0,191.3,307.027Z" fill="#e86c27"/>
      </g>
      <g id="Group_249" data-name="Group 249">
        <rect id="Rectangle_143" data-name="Rectangle 143" width="2.91" height="11.128" transform="translate(192.025 292.25)" fill="#ffce88"/>
      </g>
      <path id="Path_410" data-name="Path 410" d="M197.969,291.53c.745,2.851.114,5.485-2.736,6.23a5.335,5.335,0,1,1-2.7-10.322C195.385,286.692,197.223,288.682,197.969,291.53Z" fill="#ffce88"/>
      <path id="Path_411" data-name="Path 411" d="M196.04,326.881c.14-.209,5.63-4.38,5.63-4.38l-1.319-.7-4.519-2.918-2.224,3.753,2.572,3.962" fill="#202a42"/>
      <path id="Path_412" data-name="Path 412" d="M195.164,319.051l17.4-2.97.156-.027a1.474,1.474,0,0,1,1.7,1.722l-3.062,16.65a.514.514,0,0,1-1.018-.124l1.017-16.9,1.856,1.7-17.079,4.445a2.3,2.3,0,1,1-1.159-4.45A1.906,1.906,0,0,1,195.164,319.051Z" fill="#202a42"/>
      <path id="Path_413" data-name="Path 413" d="M196.539,320.751c0,.268-.01,1.3-.045,1.569l-.084,1.232L196.229,326l-.378,4.875-.783,9.738-.011.145a1.318,1.318,0,0,1-.159.519l-9.134,16.2a.553.553,0,0,1-.994-.479l6.993-17.229-.17.663.226-9.756.1-4.874.04-2.431.015-1.206c-.012-.542.027-.325,0-.87l-.02-.435a2.293,2.293,0,0,1,4.581-.2C196.538,320.68,196.539,320.72,196.539,320.751Z" fill="#202a42"/>
      <path id="Path_414" data-name="Path 414" d="M191,301.494c-1.375,2.177-2.645,4.339-3.814,6.646a25.2,25.2,0,0,0-1.561,3.673,7.793,7.793,0,0,0-.266,1.114,3.225,3.225,0,0,0,.093,1.619,1.98,1.98,0,0,0,.9,1.067,3.729,3.729,0,0,0,.8.251,7.674,7.674,0,0,0,1.172.091,50.362,50.362,0,0,0,7.6-1.06c2.463-.491,4.9-1.034,7.334-1.624a.559.559,0,0,0,.41-.673.565.565,0,0,0-.627-.42c-2.453.358-4.922.674-7.384.928a49.284,49.284,0,0,1-7.251.344,5.408,5.408,0,0,1-.68-.115c-.021-.018-.152-.053-.087-.022a.782.782,0,0,1,.34.354c.052.159.022-.029.094-.226a5.278,5.278,0,0,1,.239-.682,23.025,23.025,0,0,1,1.662-3.055c1.28-2.03,2.73-4.044,4.2-5.953l.016-.021a1.953,1.953,0,0,0-3.094-2.385C191.066,301.393,191.03,301.444,191,301.494Z" fill="#e86c27"/>
      <path id="Path_415" data-name="Path 415" d="M193.4,300.538c-1.9,0-3.893,1.042-3.893,4.239s2.965,7.689,2.965,7.689h5.584l-1.6-9.5Z" fill="#e86c27"/>
      <path id="Path_416" data-name="Path 416" d="M212.05,334.179l.068-.143c-.8,0-1.608.027-2.412.037-.038.582-.065,1.037-.065,1.124,0,0,3.892.742,3.8,0S212.05,334.179,212.05,334.179Z" fill="#e84e27"/>
      <path id="Path_417" data-name="Path 417" d="M185.823,358.487l.276-.306a17.011,17.011,0,0,1-1.937-.525c-.021,0-.042-.006-.062-.009l-.223,1.831s3.708.627,3.615,0S185.823,358.487,185.823,358.487Z" fill="#e84e27"/>
      <path id="Path_418" data-name="Path 418" d="M202.713,312.215l.139,1.251,2.85.278s.418-2.711-.834-2.433A6.748,6.748,0,0,0,202.713,312.215Z" fill="#ffce88"/>
      <path id="Path_419" data-name="Path 419" d="M210.045,304.875c.37.042,2.052-1.488,2.052-1.488s-.526-2.641-1.525-1.876a3.379,3.379,0,0,0-.981,2.429Z" fill="#ffce88"/>
      <path id="Path_420" data-name="Path 420" d="M197.969,291.6c.3.249,1.894,1.152,1.894,1.152l-2.154,1.392-.695-2.433Z" fill="#ffce88"/>
      <path id="Path_421" data-name="Path 421" d="M188.372,289.047s3.058-3.059,6.951-2.319,1.2,3.708-.185,4.913-4.82,5.006-4.82,5.006S184.758,292.661,188.372,289.047Z" fill="#202a42"/>
      <path id="Path_422" data-name="Path 422" d="M191.871,297.618c.195.072.486-7.158.486-7.158l-4.588,3.2A6.929,6.929,0,0,0,191.871,297.618Z" fill="#202a42"/>
      <path id="Path_423" data-name="Path 423" d="M190.063,306.724c.07.168.348,13.165.348,13.165a32.014,32.014,0,0,0,6.812-.167,8.68,8.68,0,0,0,4.518-1.793l-3.058-9.076Z" fill="#e86c27"/>
      <path id="Path_424" data-name="Path 424" d="M191.8,300.746l.138-1.529,3.336.557-.069,2.85-3.059-1.112Z" fill="#e86c27"/>
    </g>
  </g>
</svg>
