<svg xmlns="http://www.w3.org/2000/svg" width="361" height="355.916" viewBox="0 0 361 355.916">
  <g id="Review" transform="translate(-140.797 -124.088)">
    <g id="Group_224" data-name="Group 224" transform="translate(188.395 163.376)">
      <path id="Path_341" data-name="Path 341" d="M274.442,469.9l2.959-11.564c-5.029-8.954-10-10-14.925-.4l2.93,11.724c5.406,21.837,3.523,21.325,9.036.242Z" transform="translate(-261.4 -359.613)" fill="#fbc081" fill-rule="evenodd"/>
      <path id="Path_342" data-name="Path 342" d="M273.029,509.25c3.361,14.306,2.985,14.065,6.4.134a4.12,4.12,0,0,0-3.2-2.178,3.86,3.86,0,0,0-3.2,2.044Z" transform="translate(-267.731 -393.236)" fill="#4d4d4d" fill-rule="evenodd"/>
      <path id="Path_343" data-name="Path 343" d="M265.647,266.822l-.027,6.992-.107,61.663c-.027,3.173-1.318,5.728-2.877,5.674h0c-1.587-.026-2.851-2.663-2.851-5.809l.134-68.683a7.474,7.474,0,0,1,.027-.78l.027-7.045c0-2.717,1.1-4.894,2.447-4.868l3.254.107Z" transform="translate(-259.785 -241.3)" fill="#b96f2d" fill-rule="evenodd"/>
      <path id="Path_344" data-name="Path 344" d="M272.168,266.983l-.027,6.992-.188,61.663c-.027,3.173,1.425,5.809,3.227,5.835h0c1.775.054,3.254-2.5,3.254-5.673l.188-61.69.027-6.992.027-12.747-6.481-.135Z" transform="translate(-267.085 -241.461)" fill="#e4883a" fill-rule="evenodd"/>
      <path id="Path_345" data-name="Path 345" d="M292.766,267.521v2.771l-.242,65.913c0,3.171-1.506,5.727-3.307,5.673h0c-1.829-.027-3.308-2.662-3.281-5.835l.189-61.664.027-6.992.053-12.746,3.792.08c1.425.027,2.609,1.91,2.8,4.276Z" transform="translate(-275.474 -241.704)" fill="#f99e3f" fill-rule="evenodd"/>
      <path id="Path_346" data-name="Path 346" d="M264.76,222.3l8.606.242a4.441,4.441,0,0,1,4.276,4.411l-.027,11.133a4.192,4.192,0,0,1-4.3,4.2l-8.579-.242a4.421,4.421,0,0,1-4.275-4.41l.027-11.16a4.179,4.179,0,0,1,4.276-4.169Z" transform="translate(-260.189 -222.301)" fill="#f1698d" fill-rule="evenodd"/>
      <path id="Path_347" data-name="Path 347" d="M262.421,254.5l13.5.43a1.914,1.914,0,0,1,1.829,1.883V260.5a1.76,1.76,0,0,1-1.856,1.775l-13.473-.4a1.9,1.9,0,0,1-1.829-1.91v-3.657a1.791,1.791,0,0,1,1.829-1.8Z" transform="translate(-260.269 -241.622)" fill="#d85e7f" fill-rule="evenodd"/>
    </g>
    <path id="Path_348" data-name="Path 348" d="M253.35,587.535c-9.493-9.654-.43-34.9,14.549-45.931,19.2-14.118,36.089-20.007,48.808-11.026-11.94,11.482-25.278,21.567-36.814,33.453-9.87,10.139,12.989,4.034,22.992-5.62l1.506,32.028c-1.963,4.17-4.061,7.987-5.271,12.426-2.475,9.062-3.55,19.362-5.46,28.909l-27.4,1.1c-2.878-18.716-.189-32.406-12.908-45.341Z" transform="translate(-65.196 -241.32)" fill="#fed9b1" fill-rule="evenodd"/>
    <g id="Group_227" data-name="Group 227" transform="translate(212.786 124.088)">
      <g id="Group_225" data-name="Group 225">
        <rect id="Rectangle_99" data-name="Rectangle 99" width="208.682" height="229.658" transform="translate(8.848 59.135)" fill="#fbfbfb"/>
        <path id="Path_349" data-name="Path 349" d="M539.579,183.223H328.342a7.592,7.592,0,0,1-7.583-7.583V164.426a7.609,7.609,0,0,1,7.583-7.583h76.212a31.053,31.053,0,0,1-.161-3.173,29.568,29.568,0,1,1,59.136,0,24.841,24.841,0,0,1-.188,3.173h76.239a7.609,7.609,0,0,1,7.583,7.583V175.64a7.609,7.609,0,0,1-7.583,7.583ZM433.948,142.267a11.389,11.389,0,1,0,11.4,11.4,11.385,11.385,0,0,0-11.4-11.4Z" transform="translate(-320.759 -124.088)" fill="#f16858" fill-rule="evenodd"/>
        <path id="Path_350" data-name="Path 350" d="M539.579,260.421H328.342a7.592,7.592,0,0,1-7.583-7.583v-.081h226.4v.081a7.609,7.609,0,0,1-7.583,7.583Z" transform="translate(-320.759 -201.286)" fill="#c02729" fill-rule="evenodd"/>
        <path id="Path_351" data-name="Path 351" d="M779.237,794.841l34.126-34.125-34.126.456Z" transform="translate(-595.834 -506.048)" fill="#e6e6e6" fill-rule="evenodd"/>
      </g>
      <g id="Group_226" data-name="Group 226" transform="translate(37.191 66.854)">
        <path id="Path_352" data-name="Path 352" d="M420.213,332.353h30.118a6.4,6.4,0,0,1,4.572,1.909,6.462,6.462,0,0,1,1.91,4.6v30.092a6.521,6.521,0,0,1-6.482,6.481H420.213a6.521,6.521,0,0,1-6.482-6.481V338.861a6.52,6.52,0,0,1,6.482-6.508Zm30.118,3.711H420.213a2.849,2.849,0,0,0-2.771,2.8v30.092a2.8,2.8,0,0,0,2.771,2.77h30.118a2.754,2.754,0,0,0,2.77-2.77V338.861a2.8,2.8,0,0,0-2.77-2.8Z" transform="translate(-413.731 -315.895)" fill="#08c6a2"/>
        <path id="Path_353" data-name="Path 353" d="M420.213,487.509h30.118a6.52,6.52,0,0,1,6.482,6.481v30.12a6.52,6.52,0,0,1-6.482,6.48H420.213a6.52,6.52,0,0,1-6.482-6.48V493.99a6.52,6.52,0,0,1,6.482-6.481Zm30.118,3.711H420.213a2.85,2.85,0,0,0-2.771,2.77v30.12a2.8,2.8,0,0,0,2.771,2.769h30.118a2.755,2.755,0,0,0,2.77-2.769V493.99a2.8,2.8,0,0,0-2.77-2.77Z" transform="translate(-413.731 -408.984)" fill="#f16858"/>
        <path id="Path_354" data-name="Path 354" d="M560.256,354.941c-3.737,0-5.486,2.474-5.486,6.185v12.666c0,3.711,1.749,6.158,5.486,6.158,3.792,0,5.54-2.447,5.54-6.158v-7.206h-5.11v2.447h2.528v4.894c0,2.206-.887,3.55-2.877,3.55-1.963,0-2.877-1.344-2.877-3.55V360.965c0-2.205.914-3.523,2.877-3.523,1.99,0,2.877,1.317,2.877,3.523v2.259H565.8v-2.1c0-3.711-1.748-6.185-5.54-6.185Zm7.933,18.851c0,3.711,1.855,6.158,5.593,6.158,3.765,0,5.621-2.447,5.621-6.158V361.126c0-3.765-1.856-6.185-5.621-6.185-3.738,0-5.593,2.42-5.593,6.185Zm2.689-12.827c0-2.205.941-3.523,2.9-3.523,1.991,0,2.9,1.317,2.9,3.523v12.962c0,2.233-.914,3.55-2.9,3.55-1.963,0-2.9-1.317-2.9-3.55ZM581.8,373.792c0,3.711,1.856,6.158,5.594,6.158,3.791,0,5.647-2.447,5.647-6.158V361.126c0-3.765-1.856-6.185-5.647-6.185-3.738,0-5.594,2.42-5.594,6.185Zm2.69-12.827c0-2.205.941-3.523,2.9-3.523,1.99,0,2.9,1.317,2.9,3.523v12.962c0,2.233-.914,3.55-2.9,3.55-1.963,0-2.9-1.317-2.9-3.55Zm11.133-5.755v24.5h5.754c3.818,0,5.567-2.313,5.567-6.05v-12.37c0-3.792-1.748-6.078-5.567-6.078Zm2.743,22V357.684h2.931c1.989,0,2.931,1.236,2.931,3.469v12.612c0,2.232-.941,3.443-2.9,3.443Z" transform="translate(-498.351 -329.447)" fill="#666" fill-rule="evenodd"/>
        <path id="Path_355" data-name="Path 355" d="M554.77,510.77v24.5h5.621c3.819,0,5.62-2.071,5.62-5.755V527.47c0-2.716-.914-4.6-3.307-5.271,2.151-.646,2.877-2.259,2.877-4.868v-1.156c0-3.6-1.506-5.406-5.325-5.406Zm2.716,10.38v-7.906H560.2c1.963,0,2.689,1.049,2.689,3.227V517.9c0,2.554-1.13,3.254-3.281,3.254Zm0,11.617v-9.116h2.393c2.34,0,3.443.888,3.443,3.631v2.178c0,2.259-.914,3.307-2.931,3.307Zm19.981-2.446.942,4.948h2.716l-4.679-24.5h-3.953l-4.706,24.5h2.529l.941-4.948Zm-3.173-16.486,2.769,14.145H571.6Zm8.982-3.065v24.5H589c3.818,0,5.567-2.313,5.567-6.051v-12.37c0-3.793-1.748-6.078-5.567-6.078Zm2.715,22V513.244h2.958c1.99,0,2.932,1.237,2.932,3.468v12.613c0,2.232-.942,3.442-2.9,3.442Z" transform="translate(-498.351 -422.941)" fill="#666" fill-rule="evenodd"/>
        <path id="Path_356" data-name="Path 356" d="M423.008,320.846l13.473,23.745,43.646-53.381-43.511,38.268Z" transform="translate(-419.297 -291.211)" fill="#03386e" fill-rule="evenodd"/>
        <rect id="Rectangle_100" data-name="Rectangle 100" width="100.738" height="5.243" transform="translate(4.438 135.241)" fill="#666"/>
        <rect id="Rectangle_101" data-name="Rectangle 101" width="21.729" height="5.244" transform="translate(55.505 151.724)" fill="#666"/>
        <rect id="Rectangle_102" data-name="Rectangle 102" width="36.492" height="5.243" transform="translate(127.63 135.241)" fill="#666"/>
        <rect id="Rectangle_103" data-name="Rectangle 103" width="71.021" height="5.244" transform="translate(93.1 151.724)" fill="#666"/>
        <rect id="Rectangle_104" data-name="Rectangle 104" width="120.234" height="5.216" transform="translate(4.438 169.016)" fill="#666"/>
        <rect id="Rectangle_105" data-name="Rectangle 105" width="24.606" height="5.216" transform="translate(139.516 169.016)" fill="#666"/>
        <rect id="Rectangle_106" data-name="Rectangle 106" width="33.83" height="5.244" transform="translate(4.438 151.724)" fill="#666"/>
      </g>
    </g>
    <g id="Group_228" data-name="Group 228" transform="translate(406.058 258.173)">
      <path id="Path_357" data-name="Path 357" d="M892.3,758.162a133.057,133.057,0,0,1-22.537,1.936,136.257,136.257,0,0,1-14.495-.807V738.369a2.976,2.976,0,0,1,2.662-3.2h31.706a2.977,2.977,0,0,1,2.663,3.2Z" transform="translate(-834.723 -624.806)" fill="#03386e" fill-rule="evenodd"/>
      <path id="Path_358" data-name="Path 358" d="M869.847,523.011c9.9-10.085.429-36.358-15.141-47.815-19.981-14.682-37.568-20.813-50.8-11.482q20.816,20.008,41.656,40.015c-17.937.7-13.715,1.21-27.268-11.053l-1.588,33.347c2.071,4.329,4.25,8.31,5.514,12.935,2.554,9.413,3.683,20.142,5.674,30.065l28.506,1.13c3.012-19.469.214-33.7,13.446-47.142Z" transform="translate(-803.907 -459.279)" fill="#fed9b1" fill-rule="evenodd"/>
      <path id="Path_359" data-name="Path 359" d="M850.429,729.44h38.482a2.031,2.031,0,0,0,2.017-2.017V723.2a2.014,2.014,0,0,0-2.017-2.017H850.429a2.015,2.015,0,0,0-2.017,2.017v4.222a2.032,2.032,0,0,0,2.017,2.017Z" transform="translate(-830.609 -616.416)" fill="#335e8a" fill-rule="evenodd"/>
    </g>
    <g id="Group_229" data-name="Group 229" transform="translate(362.386 230.527)">
      <path id="Path_360" data-name="Path 360" d="M747.061,437.276l96.058,74.142a2.014,2.014,0,0,0,2.823-.378l7.5-9.706a2.02,2.02,0,0,0-.376-2.824L757.01,424.368a2.014,2.014,0,0,0-2.824.376l-7.5,9.708a2.012,2.012,0,0,0,.377,2.823Z" transform="translate(-725.654 -410.439)" fill="#03386e" fill-rule="evenodd"/>
      <path id="Path_361" data-name="Path 361" d="M722.89,404.931l-16.457-14.763-11.7.027L719.5,409.341Z" transform="translate(-694.734 -390.168)" fill="gray" fill-rule="evenodd"/>
      <path id="Path_362" data-name="Path 362" d="M716.113,413.765l-18.447-12.183-2.931-11.348L719.5,409.382Z" transform="translate(-694.734 -390.208)" fill="#b3b3b3" fill-rule="evenodd"/>
      <path id="Path_363" data-name="Path 363" d="M716.588,403.751a2.109,2.109,0,1,1-2.958.377,2.1,2.1,0,0,1,2.958-.377Z" transform="translate(-705.804 -398.05)" fill="#e6e6e6" fill-rule="evenodd"/>
      <path id="Path_364" data-name="Path 364" d="M1007.077,620.867h0a2.854,2.854,0,0,1,.539,3.978l-3.926,5.058a2.859,2.859,0,0,1-3.98.537h0a2.858,2.858,0,0,1-.51-3.979l3.926-5.083a2.8,2.8,0,0,1,3.952-.51Z" transform="translate(-877.055 -528.224)" fill="#335e8a" fill-rule="evenodd"/>
      <path id="Path_365" data-name="Path 365" d="M966.7,607.656l-25.358-19.578-1.237,1.587,25.359,19.577Z" transform="translate(-841.952 -508.909)" fill="#335e8a" fill-rule="evenodd"/>
      <rect id="Rectangle_107" data-name="Rectangle 107" width="13.189" height="2.377" transform="matrix(0.611, -0.792, 0.792, 0.611, 84.017, 71.242)" fill="#e6e6e6"/>
      <path id="Path_366" data-name="Path 366" d="M793.652,450.735l1.748,1.345-8.5,11-1.748-1.317Z" transform="translate(-748.984 -426.507)" fill="#e6e6e6" fill-rule="evenodd"/>
    </g>
    <g id="Group_233" data-name="Group 233" transform="translate(193.532 265.664)">
      <g id="Group_230" data-name="Group 230" transform="translate(206.991)">
        <path id="Path_367" data-name="Path 367" d="M806.094,485.006l5.513,14.6c1.721,7.019,6.4,12.235,10.381,16.78l.591,12.236c.215,4.544-1.425,14.953-4.411,11.51h0a7.229,7.229,0,0,1-10.272-3.98l-17.265-45.69a9.5,9.5,0,0,1,4.411-11.51h0c3.388-3.038,9.439,1.8,11.052,6.051Z" transform="translate(-790.07 -478.003)" fill="#fed9b1" fill-rule="evenodd"/>
        <path id="Path_368" data-name="Path 368" d="M799.405,499.01c-.27-.807-1.614-4.465-1.614-4.975.216-9.6,6.938-8.928,10.38-3.227a21.26,21.26,0,0,1,1.991,5.351c1.426,4.975-8.928,8.121-10.756,2.851Z" transform="translate(-794.703 -483.187)" fill="#fff" fill-rule="evenodd"/>
      </g>
      <g id="Group_232" data-name="Group 232" transform="translate(0 25.073)">
        <g id="Group_231" data-name="Group 231" transform="translate(12.854)">
          <path id="Path_369" data-name="Path 369" d="M312.961,577.793l-8.2,38.321,9.816,22.831,13.768.807.216-9.035A181.534,181.534,0,0,1,332.3,611.49c1.21-4.439,3.307-8.256,5.271-12.426,0-.215,15.732-41.547,17.318-45.742s-.537-8.955-4.329-11.322c-2.179-1.372-6.132-1.775-8.068-.726-8.095,4.382-13.069,37.192-29.527,36.518Z" transform="translate(-304.758 -540.681)" fill="#fed9b1" fill-rule="evenodd"/>
          <path id="Path_370" data-name="Path 370" d="M400.961,560.986c.3-.887,1.775-4.921,1.775-5.486-.215-10.541-9.788-10.246-13.58-3.953a21.423,21.423,0,0,0-2.1,5.648c-1.56,5.459,11.913,9.573,13.9,3.792Z" transform="translate(-354.061 -544.553)" fill="#fff" fill-rule="evenodd"/>
        </g>
        <path id="Path_371" data-name="Path 371" d="M279.281,813.514a125.131,125.131,0,0,0,35.578,1.1V794.5a2.854,2.854,0,0,0-2.555-3.066H281.836a2.835,2.835,0,0,0-2.555,3.066Z" transform="translate(-276.619 -691.127)" fill="#03386e" fill-rule="evenodd"/>
        <path id="Path_372" data-name="Path 372" d="M311.565,785.924H274.589a1.95,1.95,0,0,1-1.963-1.936v-4.061a1.951,1.951,0,0,1,1.963-1.936h36.976a1.946,1.946,0,0,1,1.936,1.936v4.061a1.945,1.945,0,0,1-1.936,1.936Z" transform="translate(-272.626 -683.061)" fill="#335e8a" fill-rule="evenodd"/>
      </g>
    </g>
    <g id="Group_235" data-name="Group 235" transform="translate(140.797 231.086)">
      <g id="Group_234" data-name="Group 234" transform="translate(0 155.978)">
        <path id="Path_373" data-name="Path 373" d="M140.8,781.484,193.881,796.3l53.085,14.844-28.587,26.6-28.586,26.6L165.3,822.9Z" transform="translate(-140.797 -781.484)" fill="#fefefe" fill-rule="evenodd"/>
        <path id="Path_374" data-name="Path 374" d="M140.8,781.484l41.386,25.71L223.57,832.9l-2.985,15.491-7.422-5.809-36.17-30.549Z" transform="translate(-140.797 -781.484)" fill="#d0d2d4" fill-rule="evenodd"/>
      </g>
      <path id="Path_375" data-name="Path 375" d="M359.348,620.9a2.341,2.341,0,0,1-1.129-3.092,2.314,2.314,0,0,1,3.092-1.1l.108.054.914.4.888.43.914.4.914.4.43.188a2.328,2.328,0,0,1,1.21,3.066,2.294,2.294,0,0,1-3.065,1.182l-.457-.188-.941-.429-.942-.4-.914-.429-.914-.432Zm17.372,7.181a2.348,2.348,0,0,1-1.426-2.985,2.307,2.307,0,0,1,2.959-1.4l.861.3.968.323.968.348.968.323.592.188a2.322,2.322,0,0,1-1.452,4.411l-.619-.189-.994-.35-1-.323-.995-.349Zm17.937,5.486a2.319,2.319,0,1,1,1.156-4.491l.08.026,1.022.27,1.022.242,1.022.242,1.022.241.269.081a2.316,2.316,0,0,1-1.022,4.518l-.323-.08-1.048-.242-1.048-.243-1.022-.268-1.049-.269Zm18.367,3.9a2.354,2.354,0,0,1-1.936-2.663,2.326,2.326,0,0,1,2.689-1.909l.78.108,1.048.187,1.076.162,1.049.161.565.081a2.325,2.325,0,0,1,1.99,2.608,2.35,2.35,0,0,1-2.636,1.991l-.592-.081-1.076-.187-1.1-.162-1.076-.161Zm18.61,2.285a2.319,2.319,0,0,1,.349-4.625l.888.08,1.1.082,1.1.08,1.1.054.4.027a2.332,2.332,0,0,1,2.178,2.446,2.3,2.3,0,0,1-2.447,2.179l-.43-.028-1.13-.054-1.129-.08-1.1-.08Zm18.744.727a2.3,2.3,0,0,1-2.34-2.314,2.329,2.329,0,0,1,2.313-2.312h1.425l1.129-.028h1.13l.914-.026a2.314,2.314,0,1,1,.108,4.626l-.94.026-1.158.028h-2.581Zm18.743-.78a2.321,2.321,0,1,1-.4-4.625l1.05-.081,1.128-.108,1.1-.107,1.1-.107.188-.027a2.326,2.326,0,0,1,.484,4.626h-.188l-1.13.134-1.129.107-1.129.081Zm18.583-2.339a2.309,2.309,0,0,1-2.663-1.883,2.34,2.34,0,0,1,1.91-2.689l.35-.055,1.075-.187,1.076-.188,1.049-.188.968-.189a2.326,2.326,0,0,1,.861,4.572l-.968.188-1.1.188-1.1.188-1.074.19Zm18.367-3.873A2.319,2.319,0,1,1,504.915,629l.3-.08,1.022-.268,1.049-.269,1.022-.269,1.021-.3h0a2.324,2.324,0,0,1,1.292,4.465h-.054l-1.049.3-1.049.3-1.048.268-1.05.27Zm17.964-5.46a2.3,2.3,0,0,1-2.959-1.4,2.346,2.346,0,0,1,1.4-2.985l.832-.268.969-.377.968-.35.968-.349.565-.216a2.32,2.32,0,1,1,1.668,4.33l-.592.215-.994.376-1,.378-.994.349Zm17.4-7.045a2.328,2.328,0,1,1-1.963-4.221l.887-.4.914-.43.914-.431.888-.43.539-.269a2.327,2.327,0,1,1,2.07,4.168l-.565.269-.941.43-.915.457-.941.43Zm16.673-8.686a2.326,2.326,0,1,1-2.367-4.006l.511-.3.834-.483.86-.511.834-.511.834-.512.054-.026a2.313,2.313,0,1,1,2.447,3.926l-.054.053-.861.512-.86.537-.86.512-.888.51ZM573.812,602a2.318,2.318,0,0,1-2.743-3.737l.564-.431.78-.564.754-.565.754-.592.779-.565.028-.026a2.312,2.312,0,0,1,3.253.376,2.348,2.348,0,0,1-.4,3.281l-.053.027-.779.59-.78.593-.781.591-.78.592Zm14.548-11.94a2.321,2.321,0,1,1-3.146-3.415l.242-.242.7-.618.672-.645.673-.646.672-.646.349-.35a2.33,2.33,0,0,1,3.281.028,2.307,2.307,0,0,1-.027,3.281l-.376.376-.7.672-.672.672-.7.646-.7.644Zm13.07-13.58a2.309,2.309,0,0,1-3.254.3,2.341,2.341,0,0,1-.3-3.281l.3-.322.565-.7.592-.7.564-.7.565-.7.323-.4a2.326,2.326,0,0,1,3.656,2.877l-.349.431-.592.726-.591.726-.592.727-.592.7ZM612.7,561.367a2.336,2.336,0,0,1-3.225.7,2.3,2.3,0,0,1-.673-3.2l.028-.054.457-.752.484-.754.458-.726.456-.754.459-.752.054-.08a2.323,2.323,0,0,1,3.172-.834,2.293,2.293,0,0,1,.808,3.173l-.054.107-.457.78-.483.78-.484.779-.484.78-.484.753Zm9.063-16.593a2.329,2.329,0,0,1-4.249-1.908l.081-.162.377-.806.323-.779.349-.808.35-.78.322-.807V538.7a2.343,2.343,0,0,1,3.013-1.29,2.3,2.3,0,0,1,1.29,3.012v.054l-.349.833-.35.834-.35.833-.376.806-.351.834ZM628.214,527a2.325,2.325,0,0,1-4.491-1.211l.027-.108.242-.834.215-.833.215-.834.188-.834.215-.833.026-.135a2.316,2.316,0,1,1,4.518,1.022l-.026.161-.215.888-.216.861-.216.86-.241.887-.215.861Zm3.5-18.584a2.312,2.312,0,1,1-4.6-.483h0l.082-.888.08-.86.054-.861.08-.86.054-.861v-.188a2.33,2.33,0,0,1,4.652.269l-.026.215-.054.887-.054.914-.08.888-.081.914-.108.888Zm.377-18.932a2.318,2.318,0,0,1-4.626.3v-.189l-.08-.887-.054-.887-.081-.861-.081-.86-.08-.861a2.311,2.311,0,1,1,4.6-.483l.108.886.081.915.081.887.054.914.081.914Zm-2.77-18.743a2.322,2.322,0,0,1-4.519,1.076l-.054-.242-.215-.834-.188-.834-.214-.834-.243-.834-.215-.834a2.316,2.316,0,0,1,4.464-1.237l.242.861.242.861.214.86.217.86.215.887Zm-5.836-17.99a2.27,2.27,0,0,1-1.237,3.011,2.3,2.3,0,0,1-3.038-1.237l-.054-.134-.324-.78-.35-.78-.349-.807-.35-.779-.349-.78-.054-.108a2.328,2.328,0,0,1,4.221-1.964l.054.108.377.834.348.807.377.834.35.807.35.834ZM614.9,435.888a2.317,2.317,0,1,1-3.952,2.421l-.054-.081-.457-.753-.457-.726L609.5,436l-.457-.725-.484-.727-.054-.081a2.327,2.327,0,0,1,3.873-2.581l.052.107.485.754.511.753.485.78.483.752.458.78Zm-10.945-15.382a2.343,2.343,0,0,1-.323,3.28,2.309,2.309,0,0,1-3.254-.323l-.241-.294-.566-.673-.591-.7-.565-.672-.592-.672-.4-.458a2.315,2.315,0,1,1,3.469-3.066l.429.457.592.7.618.726.592.7.591.7Zm-12.908-13.742a2.322,2.322,0,0,1-3.174,3.389l-.134-.108-.672-.646-.673-.618-.671-.618-.672-.618-.539-.457a2.325,2.325,0,0,1,3.066-3.5l.538.511.726.618.7.645.7.645.673.646Zm-14.469-12.048a2.318,2.318,0,0,1,.484,3.254,2.288,2.288,0,0,1-3.226.484l-.378-.269-.753-.564-.78-.538-.78-.564-.753-.538-.3-.189a2.327,2.327,0,0,1-.593-3.227,2.36,2.36,0,0,1,3.255-.592l.3.215.781.565.805.565.78.564.78.565Z" transform="translate(-271.116 -391.565)" fill="#fff"/>
    </g>
  </g>
</svg>
