<svg xmlns="http://www.w3.org/2000/svg" width="21.822" height="20.913" viewBox="0 0 21.822 20.913">
  <g id="like_1_" data-name="like (1)" transform="translate(0 -5.457)">
    <rect id="Rectangle_77" data-name="Rectangle 77" width="6.365" height="10.911" transform="translate(0.455 15.004)" fill="#08b"/>
    <path id="Path_241" data-name="Path 241" d="M6.819,126.407H.455A.455.455,0,0,1,0,125.953V115.042a.455.455,0,0,1,.455-.455H6.819a.455.455,0,0,1,.455.455v10.911A.455.455,0,0,1,6.819,126.407ZM.909,125.5H6.365v-10H.909v10Z" transform="translate(0 -100.038)" fill="#01579b"/>
    <path id="Path_242" data-name="Path 242" d="M81.848,29.1a4.712,4.712,0,0,0,2.728.909h8.411a1.588,1.588,0,0,0,1.091-2.746,1.581,1.581,0,0,0,.909-2.728,1.581,1.581,0,0,0,.546-2.983,1.819,1.819,0,0,0-.955-3.363H88.213a14.512,14.512,0,0,0,.909-4.092c0-1.7-1.478-3.182-2.273-3.182a2.377,2.377,0,0,0-1.364.455v3.182l-2.728,5.91-.909.455Z" transform="translate(-75.029 -5.001)" fill="#fc8"/>
    <path id="Path_243" data-name="Path 243" d="M87.984,25.46H79.574a5.1,5.1,0,0,1-3.05-1.042.455.455,0,0,1-.133-.322V15.913a.455.455,0,0,1,.251-.406l.767-.384,2.62-5.674V6.366a.455.455,0,0,1,.17-.356,2.853,2.853,0,0,1,1.648-.554c1.052,0,2.728,1.665,2.728,3.637a13.1,13.1,0,0,1-.727,3.637h5.728A2.273,2.273,0,0,1,91.848,15a2.245,2.245,0,0,1-.591,1.524,2.033,2.033,0,0,1-.532,3.251,2.014,2.014,0,0,1,.214.909,2.038,2.038,0,0,1-1.123,1.819,2.014,2.014,0,0,1,.214.909A2.048,2.048,0,0,1,87.984,25.46ZM77.3,23.888a4.684,4.684,0,0,0,2.273.663h8.411a1.138,1.138,0,0,0,1.137-1.137,1.122,1.122,0,0,0-.359-.823.455.455,0,0,1,.26-.783,1.127,1.127,0,0,0,.649-1.945.455.455,0,0,1,.26-.783,1.127,1.127,0,0,0,.385-2.129.455.455,0,0,1-.03-.791,1.364,1.364,0,0,0-.71-2.521H83.211a.455.455,0,0,1-.425-.616,14.137,14.137,0,0,0,.879-3.93,3,3,0,0,0-1.819-2.728,1.915,1.915,0,0,0-.909.246V9.548a.459.459,0,0,1-.042.191l-2.728,5.91a.455.455,0,0,1-.209.215l-.658.329Z" transform="translate(-70.026)" fill="#01579b"/>
    <path id="Path_244" data-name="Path 244" d="M6.819,126.407H.455A.455.455,0,0,1,0,125.953V115.042a.455.455,0,0,1,.455-.455H6.819a.455.455,0,0,1,.455.455v10.911A.455.455,0,0,1,6.819,126.407ZM.909,125.5H6.365v-10H.909v10Z" transform="translate(0 -100.038)"/>
    <path id="Path_245" data-name="Path 245" d="M87.986,25.46H79.575a5.1,5.1,0,0,1-3.05-1.042.455.455,0,0,1,.643-.643,4.314,4.314,0,0,0,2.407.776h8.411a1.137,1.137,0,0,0,1.137-1.137,1.124,1.124,0,0,0-.359-.823.455.455,0,0,1,.26-.783,1.127,1.127,0,0,0,.649-1.945.455.455,0,0,1,.26-.783,1.127,1.127,0,0,0,.386-2.129.455.455,0,0,1-.03-.791,1.364,1.364,0,0,0-.711-2.521H83.212a.455.455,0,0,1-.425-.616,14.176,14.176,0,0,0,.879-3.93,3,3,0,0,0-1.819-2.728,1.915,1.915,0,0,0-.909.246V9.548a.459.459,0,0,1-.042.191l-2.728,5.91a.455.455,0,0,1-.209.215l-.909.455a.455.455,0,1,1-.406-.814l.767-.384L80.03,9.449V6.366A.454.454,0,0,1,80.2,6.01a2.854,2.854,0,0,1,1.648-.554c1.052,0,2.728,1.665,2.728,3.637a13.081,13.081,0,0,1-.727,3.637h5.728A2.273,2.273,0,0,1,91.85,15a2.246,2.246,0,0,1-.591,1.524,2.033,2.033,0,0,1-.531,3.251,2.038,2.038,0,0,1-.909,2.728,2.019,2.019,0,0,1,.213.909A2.049,2.049,0,0,1,87.986,25.46Z" transform="translate(-70.028)"/>
  </g>
</svg>
